# xmcd CD database file
#
# Track frame offsets:
#	150
#	20668
#	47923
#	63378
#	90145
#	127343
#	159425
#	189973
#	216840
#	242843
#
# Disc length: 3637 seconds
#
# Revision: 0
# Processed by: cddbd v1.5.1PL2 Copyright (c) Steve Scherf et al.
# Submitted via: CDex 1.51
#
DISCID=860e330a
DTITLE=Nat Adderley Quintet - Mercy, Mercy, Mercy
DYEAR=1990
DGENRE=Jazz
TTITLE0=Mercy, Mercy, Mercy
TTITLE1=What Is This Thing Called Love?
TTITLE2=On The Sunny Side Of The Street
TTITLE3=Spontaneous Combustion
TTITLE4=Nature Boy
TTITLE5=Summertime
TTITLE6=The Old Country
TTITLE7=Bohemia After Dark
TTITLE8=Love For Sale
TTITLE9=Stella By Starlight
EXTD=YEAR: 1990
EXTT0=
EXTT1=
EXTT2=
EXTT3=
EXTT4=
EXTT5=
EXTT6=
EXTT7=
EXTT8=
EXTT9=
PLAYORDER=
